<svg width="10" height="18" viewBox="0 0 10 18" fill="none" xmlns="http://www.w3.org/2000/svg">
<path d="M8.25 6.35001L2.5125 0.612514C2.27829 0.3797 1.96148 0.249023 1.63125 0.249023C1.30101 0.249023 0.9842 0.3797 0.749997 0.612514C0.632836 0.728718 0.539844 0.866969 0.476383 1.01929C0.412922 1.17162 0.380249 1.335 0.380249 1.50001C0.380249 1.66503 0.412922 1.82841 0.476383 1.98074C0.539844 2.13306 0.632837 2.27131 0.749997 2.38751L6.5 8.11252C6.61716 8.22872 6.71015 8.36697 6.77361 8.51929C6.83707 8.67162 6.86975 8.835 6.86975 9.00002C6.86975 9.16503 6.83707 9.32841 6.77361 9.48074C6.71015 9.63306 6.61716 9.77131 6.5 9.88752L0.75 15.6125C0.51462 15.8462 0.381727 16.1639 0.380555 16.4956C0.379383 16.8273 0.510029 17.1459 0.743751 17.3813C0.977473 17.6166 1.29513 17.7495 1.62683 17.7507C1.95854 17.7519 2.27712 17.6212 2.5125 17.3875L8.25 11.65C8.95225 10.9469 9.3467 9.99377 9.3467 9.00001C9.3467 8.00626 8.95225 7.05314 8.25 6.35001Z" fill="#B7B7B7"/>
</svg>
