<svg width="15" height="9" viewBox="0 0 15 9" fill="none" xmlns="http://www.w3.org/2000/svg">
<path d="M1.67709 0.375H13.3229C13.5289 0.375864 13.7301 0.437796 13.9009 0.552966C14.0717 0.668135 14.2045 0.83137 14.2826 1.02203C14.3606 1.21269 14.3804 1.42221 14.3394 1.6241C14.2983 1.82599 14.1984 2.01118 14.0521 2.15625L8.23959 7.96875C8.14275 8.06639 8.02754 8.14388 7.9006 8.19676C7.77367 8.24965 7.63752 8.27687 7.5 8.27687C7.36249 8.27687 7.22634 8.24965 7.0994 8.19676C6.97247 8.14388 6.85726 8.06639 6.76042 7.96875L0.947919 2.15625C0.801646 2.01118 0.701676 1.82599 0.66065 1.6241C0.619624 1.42221 0.639384 1.21269 0.717431 1.02203C0.795479 0.83137 0.928309 0.668135 1.09912 0.552966C1.26994 0.437796 1.47107 0.375864 1.67709 0.375Z" fill="black"/>
</svg>
