<svg width="10" height="18" viewBox="0 0 10 18" fill="none" xmlns="http://www.w3.org/2000/svg">
<path d="M1.75 11.65L7.4875 17.3875C7.7217 17.6203 8.03852 17.751 8.36875 17.751C8.69898 17.751 9.0158 17.6203 9.25 17.3875C9.36716 17.2713 9.46015 17.133 9.52362 16.9807C9.58708 16.8284 9.61975 16.665 9.61975 16.5C9.61975 16.335 9.58708 16.1716 9.52361 16.0193C9.46015 15.8669 9.36716 15.7287 9.25 15.6125L3.5 9.88749C3.38284 9.77128 3.28985 9.63303 3.22639 9.48071C3.16292 9.32838 3.13025 9.165 3.13025 8.99999C3.13025 8.83497 3.16292 8.67159 3.22639 8.51926C3.28985 8.36694 3.38284 8.22869 3.5 8.11249L9.25 2.38748C9.48538 2.15376 9.61827 1.83611 9.61944 1.5044C9.62062 1.1727 9.48997 0.854115 9.25625 0.618734C9.02253 0.383354 8.70487 0.25046 8.37317 0.249289C8.04146 0.248116 7.72288 0.378763 7.4875 0.612486L1.75 6.34999C1.04775 7.05311 0.653298 8.00623 0.653299 8.99999C0.653299 9.99374 1.04775 10.9469 1.75 11.65Z" fill="#B7B7B7"/>
</svg>
