<svg width="200" height="50" viewBox="0 0 200 50" fill="none" xmlns="http://www.w3.org/2000/svg">
<path d="M46.3684 23.2782V2.5647H52.1091L60.3943 16.0876H57.3761L65.4247 2.5647H71.1654L71.2246 23.2782H64.8626L64.8034 12.1522H65.8093L60.3056 21.414H57.2282L51.4875 12.1522H52.7304V23.2782H46.3684ZM79.9272 23.2782V14.1939L81.5249 18.3661L72.1152 2.5647H79.4834L85.8452 13.3653H81.5546L87.9758 2.5647H94.7224L85.3717 18.3661L86.9105 14.1939V23.2782H79.9272ZM46.3684 47.2601V26.5466H57.4353C60.2957 26.5466 62.4065 27.0594 63.7676 28.0854C65.1288 29.0913 65.8093 30.3834 65.8093 31.9616C65.8093 33.0071 65.5136 33.9442 64.9218 34.7728C64.3497 35.5816 63.5112 36.2227 62.4065 36.6962C61.3018 37.1697 59.9406 37.4064 58.323 37.4064L58.9149 35.8084C60.5324 35.8084 61.9232 36.0352 63.0871 36.4891C64.2707 36.9428 65.1781 37.6035 65.8093 38.4717C66.4604 39.3199 66.786 40.3456 66.786 41.5491C66.786 43.3442 66.0364 44.7448 64.537 45.751C63.0576 46.7569 60.8875 47.2601 58.0271 47.2601H46.3684ZM53.2334 42.3775H57.4353C58.2047 42.3775 58.7767 42.2395 59.1516 41.9634C59.5461 41.687 59.7435 41.2827 59.7435 40.75C59.7435 40.2175 59.5461 39.8129 59.1516 39.5368C58.7767 39.2607 58.2047 39.1225 57.4353 39.1225H52.7599V34.5066H56.4883C57.2775 34.5066 57.8495 34.3783 58.2046 34.1217C58.5796 33.8456 58.7668 33.461 58.7668 32.9678C58.7668 32.4549 58.5796 32.0701 58.2046 31.8138C57.8495 31.5572 57.2775 31.429 56.4883 31.429H53.2334V42.3775ZM79.1677 47.7335C75.9917 47.7335 73.5159 46.8753 71.7405 45.1591C69.965 43.4428 69.0772 41.0362 69.0772 37.9391V26.5466H76.0608V37.7318C76.0608 39.31 76.3468 40.4345 76.9189 41.1051C77.4909 41.7561 78.2603 42.0817 79.2268 42.0817C80.2132 42.0817 80.9826 41.7561 81.535 41.1051C82.1071 40.4345 82.3931 39.31 82.3931 37.7318V26.5466H89.2581V37.9391C89.2581 41.0362 88.3703 43.4428 86.595 45.1591C84.8195 46.8753 82.3438 47.7335 79.1677 47.7335ZM92.4591 47.2601V26.5466H99.4427V47.2601H92.4591ZM102.804 47.2601V26.5466H109.788V41.845H119.138V47.2601H102.804ZM121.067 47.2601V26.5466H131.276C133.584 26.5466 135.616 26.9708 137.372 27.8189C139.127 28.6475 140.499 29.8312 141.485 31.3698C142.471 32.9086 142.964 34.7431 142.964 36.8737C142.964 39.0239 142.471 40.8783 141.485 42.4366C140.499 43.9754 139.127 45.169 137.372 46.0172C135.616 46.8458 133.584 47.2601 131.276 47.2601H121.067ZM128.051 41.8153H130.98C131.966 41.8153 132.825 41.6279 133.555 41.2532C134.304 40.8783 134.886 40.326 135.3 39.596C135.715 38.8464 135.922 37.939 135.922 36.8737C135.922 35.8282 135.715 34.9404 135.3 34.2106C134.886 33.4806 134.304 32.9284 133.555 32.5535C132.825 32.1788 131.966 31.9913 130.98 31.9913H128.051V41.8153ZM145.514 47.2601V26.5466H152.498V47.2601H145.514ZM155.859 47.2601V26.5466H161.6L172.134 39.1522H169.471V26.5466H176.277V47.2601H170.536L160.002 34.6544H162.665V47.2601H155.859ZM190.383 47.7335C188.706 47.7335 187.158 47.477 185.737 46.9641C184.337 46.4315 183.114 45.6819 182.068 44.7151C181.042 43.7486 180.243 42.6045 179.671 41.2826C179.099 39.961 178.813 38.5012 178.813 36.9032C178.813 35.3054 179.099 33.8456 179.671 32.524C180.243 31.2021 181.052 30.058 182.098 29.0913C183.143 28.1248 184.376 27.385 185.797 26.8722C187.237 26.3395 188.815 26.0731 190.531 26.0731C192.583 26.0731 194.407 26.4183 196.005 27.1089C197.623 27.7993 198.954 28.7857 200 30.0679L195.532 34.0034C194.881 33.2538 194.171 32.6916 193.401 32.3167C192.652 31.9222 191.813 31.7249 190.886 31.7249C190.117 31.7249 189.416 31.8433 188.785 32.08C188.174 32.3167 187.651 32.6619 187.217 33.1156C186.783 33.5695 186.448 34.1118 186.211 34.7433C185.974 35.3745 185.856 36.0944 185.856 36.9032C185.856 37.6726 185.974 38.3828 186.211 39.0339C186.448 39.6651 186.783 40.2076 187.217 40.6613C187.651 41.115 188.164 41.4701 188.756 41.7266C189.367 41.9634 190.048 42.0817 190.797 42.0817C191.586 42.0817 192.356 41.9535 193.105 41.6969C193.855 41.4208 194.654 40.9572 195.502 40.3062L199.408 45.0999C198.146 45.9481 196.705 46.5991 195.088 47.0528C193.47 47.5065 191.902 47.7335 190.383 47.7335ZM193.342 44.2122V36.3411H199.408V45.0999L193.342 44.2122Z" fill="#27251F"/>
<path d="M13.0822 19.4816C13.0822 15.9473 15.9473 13.0818 19.4819 13.0818C23.0162 13.0818 25.8817 15.9473 25.8817 19.4816C25.8817 23.0162 23.0162 25.8817 19.4819 25.8817C15.9473 25.8817 13.0822 23.0162 13.0822 19.4816ZM19.4819 0C8.72253 0 0 8.72258 0 19.4816C0 30.2414 8.72253 38.9639 19.4819 38.9639V49.9342C19.4819 49.9342 38.964 42.9982 38.964 19.4816C38.964 8.72258 30.2414 0 19.4819 0Z" fill="#DA291C"/>
</svg>
